<svg width="164" height="164" viewBox="0 0 164 164" fill="none" xmlns="http://www.w3.org/2000/svg">
<circle cx="82" cy="82" r="82" fill="#0E0E0E"/>
<circle cx="82.1051" cy="81.8949" r="79.582" fill="#7D0A0A"/>
<g filter="url(#filter0_d)">
<path d="M84.7333 21.2359L97.8565 61.6247L140.324 61.6247L105.967 86.5864L119.09 126.975L84.7333 102.014L50.3765 126.975L63.4997 86.5864L29.1429 61.6247L71.6102 61.6247L84.7333 21.2359Z" fill="url(#paint0_linear)"/>
<path d="M84.7333 22.8539L97.3809 61.7792L97.4932 62.1247H97.8565L138.785 62.1247L105.673 86.1819L105.379 86.3954L105.491 86.7409L118.139 125.666L85.0272 101.609L84.7333 101.396L84.4394 101.609L51.3276 125.666L63.9752 86.7409L64.0874 86.3954L63.7935 86.1819L30.6817 62.1247L71.6102 62.1247H71.9735L72.0857 61.7792L84.7333 22.8539Z" stroke="black"/>
</g>
<path d="M84.8242 80.5918C81.9297 79.7598 79.8203 78.7402 78.4961 77.5332C77.1836 76.3145 76.5273 74.8145 76.5273 73.0332C76.5273 71.0176 77.3301 69.3535 78.9355 68.041C80.5527 66.7168 82.6504 66.0547 85.2285 66.0547C86.9863 66.0547 88.5508 66.3945 89.9219 67.0742C91.3047 67.7539 92.3711 68.6914 93.1211 69.8867C93.8828 71.082 94.2637 72.3887 94.2637 73.8066H90.8711C90.8711 72.2598 90.3789 71.0469 89.3945 70.168C88.4102 69.2773 87.0215 68.832 85.2285 68.832C83.5645 68.832 82.2637 69.2012 81.3262 69.9395C80.4004 70.666 79.9375 71.6797 79.9375 72.9805C79.9375 74.0234 80.377 74.9082 81.2559 75.6348C82.1465 76.3496 83.6523 77.0059 85.7734 77.6035C87.9062 78.2012 89.5703 78.8633 90.7656 79.5898C91.9727 80.3047 92.8633 81.1426 93.4375 82.1035C94.0234 83.0645 94.3164 84.1953 94.3164 85.4961C94.3164 87.5703 93.5078 89.2344 91.8906 90.4883C90.2734 91.7305 88.1113 92.3516 85.4043 92.3516C83.6465 92.3516 82.0059 92.0176 80.4824 91.3496C78.959 90.6699 77.7812 89.7441 76.9492 88.5723C76.1289 87.4004 75.7188 86.0703 75.7188 84.582H79.1113C79.1113 86.1289 79.6797 87.3535 80.8164 88.2559C81.9648 89.1465 83.4941 89.5918 85.4043 89.5918C87.1855 89.5918 88.5508 89.2285 89.5 88.502C90.4492 87.7754 90.9238 86.7852 90.9238 85.5312C90.9238 84.2773 90.4844 83.3105 89.6055 82.6309C88.7266 81.9395 87.1328 81.2598 84.8242 80.5918Z" fill="black"/>
<path d="M84.8242 80.5918L85.1022 79.6312L85.1005 79.6307L84.8242 80.5918ZM78.4961 77.5332L77.8156 78.266L77.8224 78.2723L78.4961 77.5332ZM78.9355 68.041L79.5685 68.8152L79.5691 68.8147L78.9355 68.041ZM89.9219 67.0742L89.4777 67.9702L89.4808 67.9717L89.9219 67.0742ZM93.1211 69.8867L92.274 70.4182L92.2778 70.4241L93.1211 69.8867ZM94.2637 73.8066V74.8066H95.2637V73.8066H94.2637ZM90.8711 73.8066H89.8711V74.8066H90.8711V73.8066ZM89.3945 70.168L88.7236 70.9095L88.7285 70.9139L89.3945 70.168ZM81.3262 69.9395L81.9436 70.7261L81.9449 70.7251L81.3262 69.9395ZM81.2559 75.6348L80.6187 76.4055L80.6243 76.4101L80.6299 76.4146L81.2559 75.6348ZM85.7734 77.6035L85.5022 78.566L85.5036 78.5664L85.7734 77.6035ZM90.7656 79.5898L90.2462 80.4444L90.2561 80.4503L90.7656 79.5898ZM93.4375 82.1035L92.5791 82.6165L92.5837 82.6241L93.4375 82.1035ZM91.8906 90.4883L92.4998 91.2813L92.5034 91.2786L91.8906 90.4883ZM80.4824 91.3496L80.075 92.2629L80.0809 92.2654L80.4824 91.3496ZM76.9492 88.5723L76.13 89.1457L76.1338 89.1512L76.9492 88.5723ZM75.7188 84.582V83.582H74.7188V84.582H75.7188ZM79.1113 84.582H80.1113V83.582H79.1113V84.582ZM80.8164 88.2559L80.1946 89.0391L80.2036 89.0461L80.8164 88.2559ZM89.6055 82.6309L88.9872 83.4168L88.9937 83.4219L89.6055 82.6309ZM85.1005 79.6307C82.2658 78.8159 80.328 77.8499 79.1697 76.7942L77.8224 78.2723C79.3127 79.6306 81.5935 80.7036 84.548 81.5529L85.1005 79.6307ZM79.1765 76.8004C78.0665 75.7697 77.5273 74.5346 77.5273 73.0332H75.5273C75.5273 75.0943 76.3007 76.8592 77.8156 78.266L79.1765 76.8004ZM77.5273 73.0332C77.5273 71.3275 78.1876 69.9441 79.5685 68.8152L78.3026 67.2668C76.4726 68.7629 75.5273 70.7076 75.5273 73.0332H77.5273ZM79.5691 68.8147C80.9688 67.6686 82.8258 67.0547 85.2285 67.0547V65.0547C82.475 65.0547 80.1366 65.765 78.302 67.2673L79.5691 68.8147ZM85.2285 67.0547C86.8552 67.0547 88.2639 67.3684 89.4777 67.9702L90.366 66.1783C88.8377 65.4206 87.1175 65.0547 85.2285 65.0547V67.0547ZM89.4808 67.9717C90.7128 68.5772 91.6317 69.3945 92.274 70.4182L93.9682 69.3552C93.1105 67.9883 91.8966 66.9306 90.363 66.1768L89.4808 67.9717ZM92.2778 70.4241C92.9371 71.4588 93.2637 72.579 93.2637 73.8066H95.2637C95.2637 72.1984 94.8285 70.7053 93.9644 69.3493L92.2778 70.4241ZM94.2637 72.8066H90.8711V74.8066H94.2637V72.8066ZM91.8711 73.8066C91.8711 72.0288 91.2945 70.5238 90.0605 69.422L88.7285 70.9139C89.4633 71.5699 89.8711 72.4908 89.8711 73.8066H91.8711ZM90.0654 69.4264C88.8409 68.3186 87.1813 67.832 85.2285 67.832V69.832C86.8616 69.832 87.9794 70.2361 88.7236 70.9095L90.0654 69.4264ZM85.2285 67.832C83.4271 67.832 81.8793 68.231 80.7075 69.1538L81.9449 70.7251C82.648 70.1713 83.7019 69.832 85.2285 69.832V67.832ZM80.7088 69.1528C79.5138 70.0906 78.9375 71.4096 78.9375 72.9805H80.9375C80.9375 71.9498 81.287 71.2414 81.9436 70.7261L80.7088 69.1528ZM78.9375 72.9805C78.9375 74.3518 79.5344 75.5091 80.6187 76.4055L81.893 74.864C81.2195 74.3073 80.9375 73.695 80.9375 72.9805H78.9375ZM80.6299 76.4146C81.6829 77.2598 83.3496 77.9595 85.5022 78.566L86.0446 76.641C83.955 76.0522 82.6101 75.4394 81.8818 74.8549L80.6299 76.4146ZM85.5036 78.5664C87.5934 79.152 89.1604 79.7844 90.2462 80.4444L91.285 78.7353C89.9802 77.9422 88.2191 77.2503 86.0433 76.6406L85.5036 78.5664ZM90.2561 80.4503C91.3553 81.1013 92.1094 81.8304 92.5791 82.6165L94.2959 81.5906C93.6172 80.4547 92.59 79.5081 91.2752 78.7294L90.2561 80.4503ZM92.5837 82.6241C93.0599 83.4051 93.3164 84.3499 93.3164 85.4961H95.3164C95.3164 84.0408 94.987 82.7238 94.2913 81.5829L92.5837 82.6241ZM93.3164 85.4961C93.3164 87.2661 92.6469 88.6365 91.2779 89.698L92.5034 91.2786C94.3687 89.8322 95.3164 87.8745 95.3164 85.4961H93.3164ZM91.2815 89.6952C89.8886 90.7651 87.963 91.3516 85.4043 91.3516V93.3516C88.2597 93.3516 90.6583 92.6958 92.4998 91.2813L91.2815 89.6952ZM85.4043 91.3516C83.7767 91.3516 82.2737 91.0431 80.884 90.4338L80.0809 92.2654C81.738 92.992 83.5162 93.3516 85.4043 93.3516V91.3516ZM80.8899 90.4364C79.5033 89.8177 78.4774 88.9972 77.7646 87.9933L76.1338 89.1512C77.0851 90.4911 78.4147 91.5221 80.075 92.2628L80.8899 90.4364ZM77.7685 87.9988C77.0708 87.0021 76.7188 85.874 76.7188 84.582H74.7188C74.7188 86.2667 75.1871 87.7987 76.13 89.1457L77.7685 87.9988ZM75.7188 85.582H79.1113V83.582H75.7188V85.582ZM78.1113 84.582C78.1113 86.4109 78.8014 87.9331 80.1947 89.0391L81.4381 87.4726C80.558 86.7739 80.1113 85.8469 80.1113 84.582H78.1113ZM80.2036 89.0461C81.5756 90.1101 83.3421 90.5918 85.4043 90.5918V88.5918C83.6461 88.5918 82.3541 88.1829 81.4292 87.4656L80.2036 89.0461ZM85.4043 90.5918C87.3024 90.5918 88.917 90.2075 90.1078 89.296L88.8922 87.7079C88.1845 88.2495 87.0687 88.5918 85.4043 88.5918V90.5918ZM90.1078 89.296C91.318 88.3697 91.9238 87.0787 91.9238 85.5312H89.9238C89.9238 86.4916 89.5804 87.1811 88.8922 87.7079L90.1078 89.296ZM91.9238 85.5312C91.9238 84.0131 91.3748 82.735 90.2172 81.8398L88.9937 83.4219C89.594 83.8861 89.9238 84.5416 89.9238 85.5312H91.9238ZM90.2238 81.8449C89.1818 81.0252 87.425 80.3033 85.1022 79.6312L84.5463 81.5524C86.8407 82.2163 88.2714 82.8537 88.9872 83.4168L90.2238 81.8449Z" fill="black"/>
<g filter="url(#filter1_d)">
<ellipse cx="41.9461" cy="25.6513" rx="4.31026" ry="4.41538" fill="white"/>
<path d="M45.7564 25.6513C45.7564 27.8251 44.0392 29.5667 41.9461 29.5667C39.8531 29.5667 38.1359 27.8251 38.1359 25.6513C38.1359 23.4775 39.8531 21.7359 41.9461 21.7359C44.0392 21.7359 45.7564 23.4775 45.7564 25.6513Z" stroke="black"/>
</g>
<g filter="url(#filter2_d)">
<circle cx="50.9872" cy="29.9615" r="1.99744" fill="white"/>
<circle cx="50.9872" cy="29.9615" r="1.49744" stroke="black"/>
</g>
<defs>
<filter id="filter0_d" x="29.1428" y="21.2359" width="125.181" height="117.739" filterUnits="userSpaceOnUse" color-interpolation-filters="sRGB">
<feFlood flood-opacity="0" result="BackgroundImageFix"/>
<feColorMatrix in="SourceAlpha" type="matrix" values="0 0 0 0 0 0 0 0 0 0 0 0 0 0 0 0 0 0 127 0"/>
<feOffset dx="10" dy="8"/>
<feGaussianBlur stdDeviation="2"/>
<feColorMatrix type="matrix" values="0 0 0 0 0 0 0 0 0 0 0 0 0 0 0 0 0 0 0.25 0"/>
<feBlend mode="normal" in2="BackgroundImageFix" result="effect1_dropShadow"/>
<feBlend mode="normal" in="SourceGraphic" in2="effect1_dropShadow" result="shape"/>
</filter>
<filter id="filter1_d" x="33.6359" y="21.2359" width="16.6205" height="16.8308" filterUnits="userSpaceOnUse" color-interpolation-filters="sRGB">
<feFlood flood-opacity="0" result="BackgroundImageFix"/>
<feColorMatrix in="SourceAlpha" type="matrix" values="0 0 0 0 0 0 0 0 0 0 0 0 0 0 0 0 0 0 127 0"/>
<feOffset dy="4"/>
<feGaussianBlur stdDeviation="2"/>
<feColorMatrix type="matrix" values="0 0 0 0 0 0 0 0 0 0 0 0 0 0 0 0 0 0 0.25 0"/>
<feBlend mode="normal" in2="BackgroundImageFix" result="effect1_dropShadow"/>
<feBlend mode="normal" in="SourceGraphic" in2="effect1_dropShadow" result="shape"/>
</filter>
<filter id="filter2_d" x="44.9897" y="27.9641" width="11.9949" height="11.9949" filterUnits="userSpaceOnUse" color-interpolation-filters="sRGB">
<feFlood flood-opacity="0" result="BackgroundImageFix"/>
<feColorMatrix in="SourceAlpha" type="matrix" values="0 0 0 0 0 0 0 0 0 0 0 0 0 0 0 0 0 0 127 0"/>
<feOffset dy="4"/>
<feGaussianBlur stdDeviation="2"/>
<feColorMatrix type="matrix" values="0 0 0 0 0 0 0 0 0 0 0 0 0 0 0 0 0 0 0.25 0"/>
<feBlend mode="normal" in2="BackgroundImageFix" result="effect1_dropShadow"/>
<feBlend mode="normal" in="SourceGraphic" in2="effect1_dropShadow" result="shape"/>
</filter>
<linearGradient id="paint0_linear" x1="84.7333" y1="17.7667" x2="84.7333" y2="132.777" gradientUnits="userSpaceOnUse">
<stop stop-color="#FBE9E9"/>
<stop offset="0.0001" stop-color="white" stop-opacity="0.944099"/>
<stop offset="1" stop-color="#EFA7A7" stop-opacity="0"/>
</linearGradient>
</defs>
</svg>
